<svg width="200px" height="43px" viewBox="0 0 200 43" preserveAspectRatio="none" version="1.1" xmlns="http://www.w3.org/2000/svg" xmlns:xlink="http://www.w3.org/1999/xlink">
    <g id="" stroke="none" stroke-width="1" fill="none" fill-rule="evenodd">
        <path d="M75.22,14.128508 L75.22,28.638508 C75.22,28.808508 75.28,28.948508 75.39,29.058508 C75.5,29.168508 75.64,29.228508 75.8,29.228508 L85.92,29.228508 C86.08,29.228508 86.22,29.168508 86.33,29.058508 C86.44,28.948508 86.5,28.808508 86.5,28.638508 L86.5,14.128508 L90.26,14.128508 L90.26,28.768508 C90.26,29.538508 90.08,30.238508 89.71,30.858508 C89.34,31.478508 88.85,31.988508 88.23,32.368508 C87.62,32.758508 86.92,32.948508 86.14,32.948508 L75.57,32.948508 C74.81,32.948508 74.12,32.758508 73.5,32.368508 L73.5,32.368508 C72.88,31.988508 72.38,31.478508 72.01,30.858508 C71.64,30.238508 71.46,29.538508 71.46,28.768508 L71.46,14.128508 L75.22,14.128508 Z M108.75,14.128508 C109.49,14.128508 110.17,14.318508 110.79,14.708508 C111.41,15.098508 111.91,15.598508 112.28,16.218508 C112.65,16.838508 112.83,17.538508 112.83,18.308508 L112.83,32.948508 L109.07,32.948508 L109.07,18.448508 C109.07,18.278508 109.01,18.138508 108.9,18.028508 C108.79,17.918508 108.66,17.858508 108.52,17.858508 L98.37,17.858508 C98.23,17.858508 98.09,17.918508 97.97,18.028508 C97.85,18.138508 97.79,18.288508 97.79,18.448508 L97.79,32.948508 L94.03,32.948508 L94.03,14.128508 L108.75,14.128508 Z M67.7,14.238508 L67.7,17.848508 L57.03,17.848508 C56.86,17.848508 56.72,17.908508 56.6,18.018508 C56.48,18.128508 56.43,18.278508 56.43,18.438508 L56.43,32.938508 L52.65,32.938508 L52.65,18.418508 C52.65,17.648508 52.84,16.948508 53.24,16.328508 C53.63,15.708508 54.15,15.198508 54.79,14.818508 C55.43,14.438508 56.14,14.238508 56.9,14.238508 L67.7,14.238508 Z" id="logo-rin" fill="#FFFFFF" fill-rule="nonzero"></path>
        <path d="M195.23,14.128508 C196.01,14.128508 196.71,14.318508 197.32,14.708508 C197.93,15.098508 198.43,15.598508 198.79,16.218508 C199.16,16.838508 199.34,17.538508 199.34,18.308508 L199.34,28.768508 C199.34,29.538508 199.16,30.238508 198.79,30.858508 C198.42,31.478508 197.93,31.988508 197.32,32.368508 C196.71,32.758508 196.01,32.948508 195.23,32.948508 L184.66,32.948508 C183.9,32.948508 183.22,32.758508 182.6,32.368508 C181.99,31.988508 181.49,31.478508 181.11,30.858508 C180.73,30.238508 180.54,29.538508 180.54,28.768508 L180.54,18.308508 C180.54,17.538508 180.73,16.838508 181.11,16.218508 C181.49,15.598508 181.99,15.088508 182.6,14.708508 C183.21,14.328508 183.9,14.128508 184.66,14.128508 L195.23,14.128508 Z M135.41,10.358508 L135.41,14.148508 L121.5,29.168508 L135.41,29.168508 L135.41,32.938508 L116.6,32.938508 L116.6,29.168508 L130.4,14.098508 L116.6,14.098508 L116.6,10.358508 L135.41,10.358508 Z M157.96,29.228508 L157.96,32.938508 L139.16,32.938508 L139.16,29.228508 L157.96,29.228508 Z M176.78,14.118508 L176.78,17.878508 L166.11,17.878508 C165.94,17.878508 165.8,17.938508 165.68,18.048508 C165.56,18.158508 165.51,18.308508 165.51,18.468508 L165.51,32.918508 L161.74,32.918508 L161.73,32.928508 L161.73,18.298508 C161.73,17.528508 161.92,16.828508 162.32,16.208508 C162.71,15.588508 163.23,15.078508 163.87,14.698508 C164.51,14.318508 165.22,14.118508 165.98,14.118508 L176.78,14.118508 Z M195.01,17.838508 L184.89,17.838508 C184.73,17.838508 184.59,17.898508 184.48,18.008508 C184.37,18.118508 184.31,18.268508 184.31,18.428508 L184.31,28.638508 C184.31,28.808508 184.37,28.948508 184.48,29.058508 C184.59,29.168508 184.73,29.228508 184.89,29.228508 L195.01,29.228508 C195.17,29.228508 195.31,29.168508 195.43,29.058508 C195.54,28.948508 195.6,28.808508 195.6,28.638508 L195.6,18.428508 C195.6,18.258508 195.54,18.118508 195.43,18.008508 C195.32,17.898508 195.18,17.838508 195.01,17.838508 Z M157.97,21.648508 L157.97,25.398508 L139.16,25.398508 L139.16,21.648508 L157.97,21.648508 Z M157.97,14.128508 L157.97,17.888508 L139.16,17.888508 L139.16,14.128508 L157.97,14.128508 Z" id="logo-zero" fill="#FFFFFF" fill-rule="nonzero"></path>
        <path d="M29.18,0.0385079504 C30.7,-0.0914920496 32.06,0.0985079504 33.26,0.74850795 C34.46,1.38850795 35.42,2.28850795 36.14,3.44850795 C36.86,4.59850795 37.22,5.73850795 37.22,7.23850795 L37.22,7.23850795 L37.22,10.608508 L30.08,11.238508 L30.08,8.89850795 C30.08,8.56850795 29.97,8.03850795 29.75,7.83850795 C29.53,7.63850795 28.92,7.57850795 28.6,7.60850795 L28.6,7.60850795 L8.66,9.37850795 C8.34,9.40850795 8.07,9.54850795 7.85,9.78850795 C7.63,10.028508 7.52,10.308508 7.52,10.638508 L7.52,10.638508 L7.52,30.628508 C7.52,30.958508 7.63,31.488508 7.85,31.688508 C8.07,31.888508 8.34,31.978508 8.66,31.948508 L8.66,31.948508 L11.28,31.718508 L11.28,39.198508 L8.4,39.458508 C6.91,39.588508 5.22,39.368508 4.02,38.718508 C2.82,38.078508 1.58,37.198508 0.84,36.048508 C0.1,34.898508 0,33.538508 0,32.038508 L0,32.038508 L0,10.538508 C0,9.02850795 0.37,7.83850795 1.11,6.54850795 C1.85,5.25850795 2.82,4.18850795 4.02,3.32850795 C5.23,2.46850795 6.92,2.00850795 8.4,1.87850795 L8.4,1.87850795 Z M37.22,25.658508 L37.22,28.768508 C37.22,30.268508 36.86,31.668508 36.14,32.948508 C35.42,34.228508 34.46,35.298508 33.26,36.158508 C32.06,37.008508 30.31,37.548508 28.79,37.678508 L28.79,37.678508 L28.79,37.688508 L26.32,37.908508 L26.32,30.388508 L28.94,30.158508 C29.26,30.128508 29.53,29.988508 29.75,29.748508 C29.97,29.508508 30.08,29.228508 30.08,28.898508 L30.08,28.898508 L30.08,26.288508 L37.22,25.658508 Z" id="logomark-zero" fill="#FFFFFF" fill-rule="nonzero"></path>
        <path d="M41.37,14.108508 L22.67,15.768508 C21.26,15.898508 19.98,16.368508 18.84,17.178508 C17.7,17.998508 16.77,19.018508 16.06,20.238508 C15.35,21.458508 15.04,22.828508 15.04,24.258508 L15.04,42.648508 L22.56,41.988508 L22.56,24.198508 C22.56,23.888508 22.67,23.618508 22.88,23.388508 C23.09,23.158508 23.35,23.028508 23.65,22.998508 L41.37,21.428508 L41.37,14.108508 L41.37,14.108508 Z" id="logomark-r" fill="#008099" fill-rule="nonzero"></path>
    </g>
</svg>
