<svg width="980" height="551" xmlns="http://www.w3.org/2000/svg" xmlns:xlink="http://www.w3.org/1999/xlink">
<path fill="#ff595e" d="M 199.10 302.68 Q 199.10 302.68 197.66 303.08 196.22 303.48 194.91 302.98 193.60 302.47 192.31 301.90 191.03 301.33 189.66 300.87 188.29 300.41 186.17 299.94 184.05 299.47 182.80 299.37 181.55 299.27 180.23 299.17 178.90 299.07 177.49 299.03 176.07 298.99 174.70 298.97 173.32 298.95 170.86 298.94 168.40 298.93 167.10 298.93 165.81 298.93 164.65 298.93 163.50 298.93 161.65 298.94 159.81 298.95 158.53 299.08 157.25 299.21 156.18 299.46 155.11 299.70 154.05 299.99 152.98 300.27 151.71 300.51 150.43 300.74 149.17 300.95 147.91 301.16 146.74 301.36 145.57 301.56 144.42 301.81 143.26 302.06 142.27 302.21 141.28 302.36 140.10 302.53 138.91 302.70 137.71 303.03 136.50 303.35 135.49 303.77 134.48 304.19 133.70 304.92 132.92 305.65 132.11 306.89 131.30 308.13 130.58 309.42 129.86 310.70 129.44 311.83 129.02 312.96 128.60 314.14 128.19 315.32 127.87 316.58 127.54 317.85 127.32 319.15 127.09 320.44 126.95 321.64 126.82 322.83 126.68 324.07 126.55 325.30 126.44 326.45 126.34 327.59 126.32 328.84 126.31 330.09 126.30 331.63 126.30 333.18 126.30 334.66 126.30 336.13 126.35 337.56 126.40 338.98 126.59 340.84 126.79 342.70 127.01 344.51 127.23 346.32 127.43 347.83 127.64 349.34 127.78 350.81 127.92 352.28 128.09 353.40 128.26 354.52 128.59 355.76 128.93 356.99 129.56 358.05 130.19 359.11 131.19 359.97 132.19 360.83 133.56 361.64 134.93 362.44 136.35 363.22 137.77 363.99 138.96 364.51 140.14 365.03 141.16 365.61 142.17 366.19 143.25 366.78 144.33 367.37 145.43 367.74 146.54 368.12 147.80 368.52 149.07 368.92 151.11 369.26 153.16 369.60 154.31 369.74 155.47 369.88 156.53 370.05 157.59 370.22 159.34 370.48 161.09 370.75 162.78 370.82 164.46 370.88 166.28 370.90 168.10 370.91 169.54 370.91 170.99 370.92 172.17 370.92 173.36 370.92 174.46 370.78 175.56 370.65 176.58 370.43 177.59 370.21 178.57 369.80 179.56 369.40 180.62 368.65 181.68 367.90 183.28 366.74 184.88 365.59 186.25 364.38 187.61 363.16 188.36 362.32 189.11 361.47 189.97 360.27 190.83 359.08 191.40 358.14 191.96 357.20 192.48 356.32 193.01 355.43 193.51 354.54 194.01 353.64 194.53 352.78 195.04 351.92 195.72 350.63 196.39 349.35 196.91 348.48 197.43 347.61 198.02 346.74 198.60 345.87 199.07 344.52 199.53 343.17 199.85 342.03 200.17 340.89 200.45 339.82 200.72 338.74 201.01 337.54 201.29 336.33 201.49 334.95 201.69 333.57 201.73 332.28 201.77 330.98 201.78 329.69 201.78 328.41 201.79 327.22 201.79 326.03 201.69 324.79 201.60 323.56 201.20 322.35 200.80 321.14 200.68 320.04 200.56 318.95 200.33 317.96 200.10 316.97 199.57 315.83 199.05 314.70 198.95 313.66 198.84 312.63 198.62 311.63 198.39 310.64 198.25 309.62 198.11 308.60 198.10 307.42 198.09 306.23 197.75 304.90 197.40 303.58 197.12 302.45 196.84 301.32 195.79 301.61 194.73 301.89 192.56 301.34 190.38 300.79 190.38 300.79 190.37 300.79 190.37 300.79 190.36 300.79 192.59 299.32 194.83 297.86 195.93 297.72 197.04 297.59 198.08 297.94 199.12 298.28 199.88 299.12 200.64 299.96 200.94 301.02 201.24 302.08 201.45 303.06 201.66 304.04 201.88 305.13 202.09 306.22 202.10 307.32 202.10 308.42 202.27 309.48 202.43 310.54 202.64 311.53 202.84 312.51 203.12 313.64 203.39 314.76 203.89 315.97 204.39 317.17 204.52 318.31 204.64 319.44 204.90 320.55 205.16 321.65 205.47 322.94 205.79 324.23 205.79 325.66 205.79 327.08 205.78 328.42 205.78 329.76 205.76 331.06 205.74 332.37 205.61 333.96 205.49 335.54 205.21 336.90 204.93 338.26 204.63 339.60 204.34 340.94 204.04 342.00 203.73 343.06 203.37 344.32 203.02 345.59 202.47 346.84 201.93 348.08 201.13 349.30 200.34 350.52 199.67 351.69 199.01 352.86 198.27 354.20 197.53 355.53 196.98 356.53 196.42 357.52 195.91 358.39 195.40 359.25 194.80 360.24 194.20 361.22 193.56 362.17 192.92 363.12 192.16 364.04 191.40 364.96 190.17 366.19 188.94 367.42 188.10 368.11 187.27 368.80 185.61 370.00 183.94 371.20 182.49 372.17 181.04 373.14 179.82 373.61 178.61 374.07 177.36 374.34 176.11 374.61 174.73 374.76 173.36 374.92 172.17 374.92 170.98 374.92 169.53 374.91 168.08 374.91 166.22 374.90 164.37 374.88 162.44 374.79 160.51 374.71 158.74 374.44 156.97 374.17 155.97 374.01 154.98 373.85 153.80 373.71 152.62 373.56 151.27 373.38 149.92 373.19 148.91 372.97 147.90 372.74 146.58 372.33 145.27 371.91 144.04 371.49 142.82 371.08 141.85 370.59 140.88 370.09 139.66 369.37 138.44 368.65 137.21 368.11 135.99 367.57 134.85 366.98 133.71 366.40 132.84 365.86 131.98 365.32 130.61 364.51 129.24 363.70 128.41 362.96 127.57 362.22 126.86 361.24 126.15 360.27 125.64 359.25 125.12 358.22 124.82 357.23 124.53 356.25 124.32 355.14 124.12 354.04 123.96 352.67 123.80 351.31 123.63 349.87 123.47 348.42 123.25 346.70 123.03 344.98 122.82 343.14 122.61 341.31 122.45 339.46 122.30 337.61 122.30 336.16 122.30 334.71 122.30 333.17 122.30 331.63 122.31 330.03 122.32 328.42 122.37 327.27 122.42 326.13 122.54 324.87 122.66 323.62 122.83 322.38 122.99 321.14 123.18 319.73 123.38 318.33 123.68 316.86 123.98 315.40 124.38 314.10 124.78 312.80 125.27 311.46 125.77 310.12 126.31 308.95 126.84 307.79 127.44 306.81 128.03 305.83 128.72 304.86 129.41 303.88 130.21 302.90 131.01 301.92 131.96 301.21 132.91 300.49 134.13 300.01 135.36 299.52 136.46 299.23 137.56 298.93 138.73 298.74 139.90 298.55 141.07 298.37 142.25 298.19 143.57 297.90 144.88 297.62 146.07 297.42 147.25 297.22 148.49 297.01 149.74 296.80 150.92 296.58 152.11 296.37 153.15 296.09 154.19 295.81 155.47 295.52 156.76 295.24 158.26 295.09 159.76 294.95 161.63 294.94 163.50 294.93 164.66 294.93 165.81 294.93 167.11 294.93 168.41 294.93 170.89 294.94 173.37 294.95 174.78 294.97 176.19 294.99 177.69 295.03 179.20 295.08 180.55 295.18 181.90 295.28 183.37 295.42 184.83 295.55 186.08 295.80 187.33 296.05 188.39 296.31 189.44 296.58 191.11 297.16 192.78 297.73 193.92 298.24 195.06 298.75 196.49 299.33 197.92 299.92 198.51 301.29 199.11 302.66 199.10 302.67 Z" data-drauu_index="10"></path><path fill="#ff595e" d="M 198.96 302.08 Q 198.96 302.08 202.61 300.57 206.26 299.06 209.99 298.50 213.72 297.95 218.37 297.25 223.01 296.56 228.74 295.91 234.47 295.26 240.82 294.91 247.16 294.57 253.69 294.42 260.23 294.28 264.77 294.22 269.31 294.16 275.78 294.63 282.25 295.09 288.97 295.76 295.69 296.43 300.68 297.01 305.67 297.59 310.58 298.30 315.49 299.00 320.03 299.72 324.57 300.43 328.32 300.96 332.07 301.48 335.39 301.80 338.70 302.13 341.70 302.35 344.69 302.57 347.48 302.76 350.27 302.94 352.71 303.09 355.16 303.24 357.37 303.39 359.59 303.53 361.29 303.64 362.99 303.74 364.10 303.78 365.21 303.82 366.43 303.85 367.66 303.87 368.77 303.88 369.88 303.88 371.33 303.88 372.77 303.88 374.12 303.86 375.48 303.84 376.82 303.79 378.16 303.73 379.27 303.72 380.38 303.71 381.39 303.64 382.41 303.57 383.65 303.54 384.90 303.51 386.12 303.31 387.34 303.11 389.01 302.87 390.68 302.63 391.83 302.52 392.98 302.42 393.19 302.41 393.40 302.40 393.64 302.42 393.88 302.44 394.11 302.52 394.34 302.60 394.54 302.72 394.75 302.85 394.92 303.03 395.08 303.20 395.20 303.41 395.32 303.62 395.39 303.85 395.46 304.08 395.47 304.32 395.47 304.57 395.43 304.80 395.38 305.04 395.27 305.26 395.17 305.47 395.02 305.66 394.86 305.85 394.67 305.99 394.48 306.13 394.26 306.23 394.03 306.32 393.80 306.36 393.56 306.40 392.64 307.26 391.72 308.13 390.68 309.08 389.64 310.03 388.93 311.03 388.22 312.02 387.52 313.12 386.83 314.22 385.96 315.42 385.10 316.62 384.18 317.76 383.26 318.91 382.45 319.88 381.63 320.85 380.91 321.66 380.18 322.47 377.45 323.77 374.71 325.08 374.71 325.07 374.71 325.07 374.71 325.06 374.71 325.06 375.95 322.43 377.20 319.81 377.88 319.04 378.57 318.28 379.35 317.34 380.14 316.40 381.00 315.34 381.85 314.28 382.68 313.13 383.50 311.99 384.22 310.86 384.94 309.73 385.91 308.44 386.88 307.14 388.05 306.07 389.22 305.01 390.20 304.28 391.19 303.55 392.29 302.98 393.40 302.40 393.64 302.42 393.88 302.44 394.11 302.52 394.34 302.60 394.54 302.72 394.75 302.85 394.91 303.03 395.08 303.20 395.20 303.41 395.32 303.62 395.39 303.85 395.46 304.08 395.47 304.32 395.47 304.57 395.43 304.80 395.38 305.04 395.27 305.26 395.17 305.47 395.02 305.66 394.86 305.85 394.67 305.99 394.48 306.13 394.26 306.23 394.03 306.32 393.80 306.36 393.56 306.40 392.82 306.44 392.09 306.48 390.55 306.68 389.02 306.87 388.02 307.04 387.01 307.20 385.96 307.36 384.90 307.51 383.76 307.56 382.61 307.61 381.51 307.66 380.40 307.71 379.33 307.72 378.25 307.73 376.92 307.79 375.59 307.84 374.18 307.86 372.77 307.88 371.32 307.88 369.87 307.88 368.74 307.88 367.60 307.87 366.33 307.84 365.05 307.82 363.90 307.77 362.75 307.73 361.04 307.63 359.32 307.53 357.12 307.38 354.92 307.23 352.46 307.08 350.01 306.93 347.20 306.75 344.39 306.56 341.35 306.33 338.32 306.11 334.92 305.78 331.51 305.44 327.73 304.91 323.94 304.39 319.43 303.67 314.92 302.96 310.07 302.26 305.21 301.57 300.25 300.99 295.30 300.41 288.63 299.75 281.96 299.08 275.66 298.62 269.36 298.16 264.84 298.22 260.32 298.28 253.85 298.42 247.37 298.56 241.15 298.90 234.92 299.23 229.26 299.87 223.60 300.52 218.96 301.21 214.31 301.90 210.56 302.46 206.80 303.02 202.88 302.56 198.96 302.10 198.96 302.09 Z" data-drauu_index="11"></path><path fill="#ff595e" d="M 393.36 305.00 Q 393.36 305.00 391.45 305.01 389.55 305.02 388.41 304.33 387.28 303.65 385.74 302.67 384.20 301.70 383.36 301.09 382.52 300.48 381.13 299.64 379.74 298.80 378.46 298.07 377.19 297.35 376.29 296.83 375.38 296.31 374.41 295.68 373.43 295.04 372.42 294.18 371.41 293.31 370.51 292.60 369.61 291.90 368.50 289.45 367.39 287.01 367.39 287.01 367.40 287.00 367.40 287.00 367.41 287.00 369.78 287.90 372.15 288.81 373.07 289.53 373.98 290.25 375.06 291.18 376.14 292.10 377.15 292.72 378.17 293.33 379.22 293.92 380.27 294.51 381.74 295.35 383.20 296.19 384.79 297.26 386.38 298.34 387.86 299.28 389.35 300.22 390.48 300.91 391.62 301.59 392.49 303.29 393.37 304.98 393.37 304.99 Z" data-drauu_index="12"></path><path fill="#ff595e" d="M 361.63 248.08 Q 361.63 248.08 360.82 249.07 360.00 250.07 359.00 250.01 358.00 249.95 356.70 249.69 355.41 249.43 354.23 249.02 353.05 248.60 352.11 247.93 351.18 247.26 350.37 246.50 349.56 245.74 348.97 244.93 348.38 244.11 347.85 243.09 347.31 242.06 346.95 241.04 346.59 240.01 346.20 239.02 345.81 238.03 345.49 236.91 345.18 235.78 344.67 234.77 344.16 233.76 343.71 232.62 343.27 231.48 342.94 230.38 342.61 229.29 342.53 228.14 342.45 226.99 342.69 225.94 342.93 224.88 343.56 223.86 344.20 222.85 344.91 221.99 345.62 221.13 346.55 220.55 347.48 219.98 348.48 219.56 349.48 219.15 350.65 218.90 351.81 218.65 353.06 218.56 354.31 218.47 355.63 218.39 356.94 218.32 358.23 218.32 359.51 218.32 360.70 218.32 361.89 218.32 362.94 218.32 363.99 218.32 365.09 218.39 366.18 218.46 367.25 218.53 368.31 218.60 369.67 218.71 371.03 218.82 372.09 219.00 373.16 219.17 374.18 219.50 375.20 219.82 376.08 220.33 376.95 220.83 377.93 221.76 378.91 222.70 379.70 224.02 380.50 225.35 380.88 226.42 381.27 227.48 381.64 228.74 382.01 229.99 382.12 231.26 382.24 232.53 382.26 233.68 382.27 234.84 382.28 235.84 382.28 236.84 382.28 238.07 382.28 239.29 382.28 240.50 382.28 241.71 382.04 243.15 381.80 244.59 380.92 245.52 380.04 246.44 379.17 247.22 378.31 248.01 377.24 248.59 376.18 249.17 375.02 249.44 373.87 249.72 372.85 249.73 371.83 249.74 370.79 249.74 369.75 249.74 368.58 249.66 367.41 249.58 366.29 249.56 365.18 249.55 364.12 249.55 363.07 249.55 361.98 249.53 360.90 249.52 359.05 248.72 357.20 247.93 357.20 247.92 357.19 247.92 357.19 247.92 357.18 247.92 359.43 246.73 361.68 245.55 362.69 245.55 363.71 245.55 364.71 245.55 365.72 245.55 366.73 245.57 367.74 245.60 368.75 245.67 369.75 245.74 370.79 245.74 371.82 245.74 372.86 245.72 373.90 245.69 374.93 245.23 375.96 244.77 376.76 244.04 377.55 243.31 377.92 242.28 378.28 241.25 378.28 239.96 378.28 238.67 378.28 237.27 378.28 235.87 378.27 234.80 378.27 233.72 378.19 232.34 378.12 230.95 377.81 229.88 377.50 228.82 377.03 227.61 376.56 226.39 375.95 225.47 375.34 224.55 374.25 223.93 373.16 223.30 371.96 223.06 370.77 222.81 369.35 222.70 367.92 222.58 366.91 222.52 365.90 222.45 364.58 222.38 363.26 222.32 362.01 222.32 360.76 222.32 359.45 222.32 358.15 222.32 356.98 222.33 355.82 222.34 354.81 222.41 353.80 222.48 352.54 222.64 351.28 222.81 350.24 223.20 349.20 223.59 348.42 224.26 347.64 224.93 347.04 225.76 346.44 226.60 346.54 227.77 346.65 228.94 346.95 229.91 347.24 230.88 347.69 231.78 348.14 232.68 348.59 233.69 349.03 234.71 349.31 235.70 349.58 236.69 349.95 237.63 350.32 238.57 350.72 239.71 351.13 240.86 351.70 241.80 352.27 242.73 353.00 243.45 353.73 244.18 354.60 244.73 355.48 245.28 356.73 245.61 357.97 245.94 358.99 246.00 360.00 246.07 360.82 247.06 361.63 248.06 361.63 248.07 Z" data-drauu_index="17"></path><path fill="#ff595e" d="M 380.93 238.22 Q 380.93 238.22 382.58 237.83 384.23 237.43 385.16 237.92 386.10 238.41 387.76 239.35 389.42 240.28 390.38 240.75 391.33 241.22 393.02 241.94 394.71 242.67 396.07 243.18 397.43 243.70 398.72 244.14 400.01 244.59 401.34 245.05 402.67 245.51 403.84 245.90 405.01 246.30 406.58 246.82 408.16 247.35 409.36 247.67 410.56 247.98 412.12 248.33 413.69 248.68 415.34 249.04 416.99 249.40 418.92 249.75 420.85 250.09 422.89 250.50 424.93 250.90 427.15 251.32 429.37 251.73 431.68 252.09 433.99 252.45 436.69 252.88 439.40 253.31 441.53 253.63 443.66 253.94 445.93 254.35 448.20 254.77 450.44 255.19 452.68 255.62 454.59 255.95 456.50 256.27 458.44 256.57 460.38 256.88 461.38 257.03 462.37 257.18 464.35 257.49 466.33 257.79 468.50 258.02 470.66 258.24 472.45 258.41 474.23 258.58 475.91 258.73 477.59 258.87 479.19 258.97 480.78 259.06 482.37 259.10 483.95 259.14 485.41 259.15 486.88 259.17 488.30 259.18 489.73 259.18 491.04 259.19 492.35 259.19 493.98 259.19 495.61 259.19 497.08 259.19 498.55 259.19 500.46 259.19 502.38 259.19 504.34 259.20 506.31 259.20 508.61 259.14 510.91 259.08 513.75 258.88 516.60 258.68 520.16 258.47 523.71 258.25 527.70 257.97 531.69 257.69 535.83 257.36 539.97 257.03 543.58 256.80 547.19 256.57 550.06 256.46 552.93 256.36 555.11 256.24 557.29 256.13 559.37 256.02 561.45 255.90 563.92 255.79 566.40 255.68 569.04 255.63 571.67 255.58 574.04 255.56 576.40 255.54 578.30 255.53 580.20 255.52 581.76 255.52 583.32 255.52 584.97 255.57 586.63 255.62 587.69 255.64 588.76 255.67 590.43 255.67 592.09 255.67 593.26 255.68 594.42 255.68 596.23 255.68 598.04 255.68 600.30 255.68 602.56 255.68 603.83 255.68 605.10 255.68 606.22 255.68 607.34 255.68 609.08 255.68 610.82 255.68 612.05 255.68 613.28 255.68 614.79 255.68 616.29 255.68 617.70 255.68 619.10 255.68 621.37 255.78 623.64 255.88 624.97 255.99 626.30 256.11 627.50 256.23 628.69 256.35 630.75 256.63 632.81 256.91 634.20 257.16 635.59 257.41 637.24 257.76 638.89 258.11 640.08 258.37 641.26 258.62 642.53 258.88 643.80 259.14 645.03 259.39 646.26 259.64 647.41 259.87 648.55 260.11 649.54 260.33 650.53 260.55 651.55 260.84 652.56 261.14 653.99 261.67 655.42 262.20 656.80 262.92 658.19 263.64 659.76 264.19 661.32 264.75 663.06 265.16 664.81 265.58 665.83 265.76 666.85 265.95 668.42 266.21 669.99 266.47 671.69 266.69 673.38 266.91 675.12 267.09 676.86 267.27 678.49 267.38 680.13 267.50 681.86 267.61 683.59 267.72 684.83 267.81 686.07 267.91 687.34 268.01 688.61 268.11 689.73 268.28 690.86 268.45 691.90 268.89 692.94 269.32 693.02 270.47 693.10 271.62 692.34 272.32 691.57 273.02 690.31 273.39 689.04 273.75 687.89 274.18 686.73 274.60 685.30 275.26 683.87 275.91 682.68 276.49 681.49 277.06 680.27 277.68 679.04 278.30 678.03 278.78 677.01 279.25 676.12 279.74 675.22 280.23 674.22 280.96 673.22 281.69 671.04 282.23 668.86 282.77 668.86 282.77 668.85 282.77 668.85 282.77 668.84 282.76 669.41 281.05 669.97 279.33 670.77 278.63 671.57 277.93 672.44 277.32 673.31 276.72 674.30 276.18 675.28 275.65 676.22 275.21 677.16 274.77 678.50 274.10 679.83 273.42 680.97 272.87 682.10 272.33 683.67 271.61 685.24 270.89 686.30 270.49 687.37 270.08 688.66 270.11 689.95 270.14 689.70 271.19 689.45 272.24 688.27 272.09 687.08 271.94 685.86 271.89 684.65 271.84 683.09 271.69 681.54 271.54 679.80 271.47 678.05 271.41 676.42 271.26 674.78 271.11 672.87 270.87 670.96 270.64 669.60 270.44 668.23 270.25 667.18 270.07 666.14 269.88 665.06 269.69 663.99 269.49 662.06 269.03 660.13 268.57 658.21 267.86 656.28 267.15 655.04 266.50 653.80 265.85 652.62 265.42 651.44 264.98 649.59 264.50 647.74 264.03 646.61 263.79 645.47 263.56 644.24 263.31 643.00 263.06 641.72 262.79 640.43 262.53 639.25 262.28 638.06 262.03 636.47 261.69 634.88 261.35 633.54 261.11 632.20 260.86 630.25 260.59 628.30 260.33 627.13 260.21 625.95 260.10 624.65 259.98 623.35 259.87 621.22 259.77 619.10 259.68 617.70 259.68 616.29 259.68 614.79 259.68 613.28 259.68 612.05 259.68 610.82 259.68 609.08 259.68 607.34 259.68 606.22 259.68 605.10 259.68 603.83 259.68 602.56 259.68 600.30 259.68 598.04 259.68 596.23 259.68 594.41 259.68 593.25 259.68 592.09 259.67 590.38 259.67 588.68 259.67 587.51 259.64 586.35 259.61 584.84 259.56 583.32 259.52 581.77 259.52 580.22 259.52 578.33 259.53 576.44 259.54 574.09 259.56 571.75 259.58 569.16 259.63 566.58 259.67 564.13 259.78 561.67 259.90 559.58 260.01 557.50 260.13 555.29 260.24 553.08 260.35 550.26 260.46 547.44 260.56 543.87 260.79 540.29 261.01 536.13 261.35 531.97 261.68 527.96 261.96 523.95 262.25 520.41 262.46 516.88 262.67 513.94 262.87 511.01 263.07 508.66 263.13 506.31 263.20 504.34 263.20 502.38 263.19 500.46 263.19 498.55 263.19 497.08 263.19 495.61 263.19 493.97 263.19 492.34 263.19 491.02 263.19 489.71 263.18 488.27 263.18 486.83 263.17 485.34 263.15 483.85 263.14 482.20 263.09 480.55 263.05 478.89 262.96 477.24 262.86 475.55 262.71 473.86 262.56 472.05 262.39 470.25 262.22 467.99 261.98 465.72 261.75 463.74 261.44 461.76 261.13 460.76 260.98 459.77 260.83 457.80 260.52 455.83 260.22 453.88 259.88 451.93 259.55 449.70 259.13 447.48 258.70 445.28 258.30 443.07 257.90 440.92 257.58 438.77 257.26 436.07 256.83 433.37 256.40 431.00 256.03 428.63 255.66 426.40 255.24 424.16 254.82 422.15 254.43 420.15 254.03 418.14 253.67 416.13 253.31 414.48 252.95 412.82 252.58 411.17 252.21 409.53 251.85 408.23 251.50 406.92 251.15 405.33 250.62 403.73 250.09 402.53 249.68 401.34 249.28 400.33 248.95 399.32 248.62 398.27 248.19 397.23 247.77 396.05 247.40 394.86 247.03 393.18 246.34 391.51 245.65 390.54 245.23 389.58 244.81 388.54 244.30 387.51 243.79 386.60 243.30 385.70 242.81 384.20 241.97 382.70 241.13 381.81 239.68 380.92 238.24 380.92 238.23 Z" data-drauu_index="18"></path><path fill="#ff595e" d="M 690.54 270.91 Q 690.54 270.91 689.20 270.81 687.86 270.71 687.15 269.68 686.45 268.65 685.81 267.67 685.18 266.69 684.57 265.58 683.96 264.47 683.36 263.42 682.76 262.38 682.17 261.55 681.59 260.73 680.57 259.95 679.55 259.17 678.68 258.58 677.81 258.00 676.63 255.91 675.45 253.82 675.45 253.81 675.45 253.81 675.45 253.80 675.45 253.80 677.73 254.23 680.01 254.67 680.94 255.29 681.88 255.91 682.88 256.69 683.89 257.47 684.75 258.49 685.62 259.51 686.37 260.68 687.12 261.85 687.78 263.11 688.43 264.36 689.14 265.45 689.85 266.54 690.41 267.39 690.98 268.24 690.77 269.57 690.55 270.90 690.55 270.90 Z" data-drauu_index="19"></path><path fill="#ff595e" d="M 23.02 130.71 Q 23.02 130.71 23.02 130.71 23.02 130.72 23.01 130.72 23.01 130.72 23.02 130.72 Z" data-drauu_index="0"></path>
</svg>